<svg xmlns="http://www.w3.org/2000/svg" viewBox="0 0 512 512">
  <defs>
    <linearGradient id="g" x1="0" y1="0" x2="1" y2="1">
      <stop offset="0" stop-color="#0ea5e9"/>
      <stop offset="1" stop-color="#22c55e"/>
    </linearGradient>
  </defs>
  <rect width="512" height="512" rx="96" fill="#0b1220"/>
  <path d="M128 332c0-92 60-164 160-164 74 0 130 38 152 102l-68 24c-10-34-40-54-84-54-58 0-92 42-92 92 0 50 34 92 92 92 44 0 74-20 84-54l68 24c-22 64-78 102-152 102-100 0-160-72-160-164z" fill="url(#g)"/>
  <path d="M126 156h86c54 0 92 34 92 84s-38 84-92 84h-32v66h-54V156zm82 120c24 0 42-14 42-36s-18-36-42-36h-28v72h28z" fill="#e5f4ff" opacity="0.9"/>
</svg>

